<svg width="36" height="36" viewBox="0 0 36 36" fill="none" xmlns="http://www.w3.org/2000/svg">
<path d="M18.0001 35L32.2942 18.4211M18.0001 35L3.70599 18.4211M18.0001 35L13.2354 18.4211M18.0001 35L22.7648 18.4211M32.2942 18.4211L27.5295 11.0527M32.2942 18.4211H22.7648M27.5295 11.0527H18.0001M27.5295 11.0527L22.7648 18.4211M8.47068 11.0527L3.70599 18.4211M8.47068 11.0527L13.2354 18.4211M8.47068 11.0527H18.0001M3.70599 18.4211H13.2354M13.2354 18.4211L18.0001 11.0527M13.2354 18.4211H22.7648M18.0001 11.0527L22.7648 18.4211" stroke="#134A9C"/>
<path d="M18 9.21058V7.98251" stroke="#134A9C"/>
<path d="M18 7.3684V0" stroke="#134A9C"/>
<path d="M28.9693 9.17198L32.7825 4.91235" stroke="#134A9C"/>
<path d="M6.98951 9.17198L3.1764 4.91235" stroke="#134A9C"/>
<path d="M33.8824 18.4211H36" stroke="#134A9C"/>
<path d="M0 18.4211H2.11764" stroke="#134A9C"/>
</svg>
