<svg width="30" height="38" viewBox="0 0 30 38" fill="none" xmlns="http://www.w3.org/2000/svg">
<path d="M8.15418 24.4294L11.3604 24.6466L7.20417 35.8983L5.77917 32.4229L2.21666 32.7704L6.49167 22.4018L8.15418 24.4294ZM8.15418 24.4294L6.49167 29.295" stroke="#134A9C"/>
<path d="M22.0481 24.5311L18.8419 24.7483L22.9981 36L24.4231 32.5246L27.9856 32.8721L23.7106 22.5035L22.0481 24.5311ZM22.0481 24.5311L23.7106 29.3967" stroke="#134A9C"/>
<path d="M22.7162 7.08863C22.5067 6.99649 22.2465 7.03661 22.0825 7.18745C21.9229 7.33416 21.8743 7.5595 21.9638 7.74984C22.0554 7.94473 22.2791 8.07071 22.5111 8.05683C22.7443 8.0429 22.9465 7.89438 23.0119 7.68956C23.0873 7.45348 22.9591 7.19391 22.7162 7.08863V7.08863Z" fill="#134A9C"/>
<path d="M23.6703 9.00341C23.3971 9.13357 23.2911 9.4415 23.4336 9.69114C25.4364 13.1986 24.5851 17.5005 21.3635 20.1524C17.47 23.3574 11.4478 23.0713 7.93924 19.5146C4.43065 15.9578 4.74386 10.4567 8.63743 7.25162C11.8533 4.60444 16.6198 4.27387 20.2287 6.44786C20.486 6.60283 20.8322 6.53796 21.0018 6.30289C21.1714 6.06786 21.1004 5.7517 20.8432 5.59674C16.81 3.16727 11.4837 3.53635 7.89033 6.49426C3.5396 10.0756 3.18961 16.2227 7.11016 20.1971C11.0307 24.1714 17.7599 24.4911 22.1106 20.9097C25.7103 17.9466 26.6613 13.1395 24.4232 9.21964C24.2806 8.97003 23.9435 8.87324 23.6703 9.00341V9.00341Z" fill="#134A9C"/>
<path d="M29.198 13.4396L27.5021 10.6201L27.4295 7.40344C27.4255 7.22865 27.3238 7.06798 27.1601 6.9776L24.1452 5.3143L22.3244 2.56025C22.2254 2.41064 22.0495 2.31776 21.8582 2.31415L18.3369 2.24773L15.2504 0.698609C15.0831 0.614705 14.8804 0.614705 14.713 0.698609L11.6264 2.24783L8.10516 2.3142C7.91387 2.31782 7.73793 2.41074 7.63899 2.5603L5.81817 5.31435L2.80331 6.97765C2.63953 7.06798 2.53786 7.2287 2.5339 7.40349L2.46119 10.6202L0.765367 13.4396C0.673405 13.5925 0.673405 13.7777 0.765367 13.9306L2.46124 16.7501L2.5339 19.9668C2.53786 20.1416 2.63953 20.3022 2.80331 20.3926L5.81817 22.0559L6.72858 23.4329L7.63899 24.81C7.73793 24.9596 7.91387 25.0525 8.10516 25.0561L9.86582 25.0893L11.6265 25.1225L13.1697 25.8971L14.713 26.6717C14.7967 26.7137 14.8892 26.7347 14.9817 26.7347C15.0742 26.7347 15.1667 26.7137 15.2504 26.6717L16.7937 25.8971L18.3369 25.1225L19.6729 25.0973L21.8582 25.0561C22.0495 25.0525 22.2254 24.9596 22.3244 24.81L22.6087 24.3799L24.1452 22.056L27.1601 20.3927C27.3238 20.3023 27.4255 20.1416 27.4295 19.9668L27.5022 16.7501L29.1981 13.9306C29.29 13.7777 29.29 13.5925 29.198 13.4396ZM26.458 16.3689C26.4147 16.441 26.3911 16.5216 26.3892 16.6038L26.32 19.6651L23.4502 21.2483C23.3728 21.291 23.3078 21.3504 23.2611 21.4211L21.5279 24.0427L18.1768 24.1058C18.0868 24.1074 17.9986 24.1291 17.9197 24.1686L14.9817 25.6433L12.0438 24.1687C11.9649 24.1291 11.8766 24.1074 11.7866 24.1058L8.43545 24.0426L6.7023 21.4211C6.65554 21.3503 6.59058 21.291 6.51313 21.2483L3.64341 19.665L3.57427 16.6038C3.57237 16.5216 3.54877 16.441 3.50541 16.3689L1.89111 13.6851L3.50535 11.0014C3.54871 10.9293 3.57231 10.8487 3.57421 10.7664L3.64341 7.70521L6.51313 6.12194C6.59058 6.07923 6.65554 6.01989 6.7023 5.94914L8.43545 3.32762L11.7865 3.26451C11.8766 3.26283 11.9648 3.24122 12.0437 3.20166L14.9817 1.72702L17.9196 3.20161C17.9985 3.24122 18.0868 3.26283 18.1768 3.26451L21.5279 3.32767L23.2611 5.94919C23.3078 6.01994 23.3728 6.07928 23.4502 6.12199L26.32 7.70526L26.3891 10.7664C26.391 10.8487 26.4146 10.9293 26.458 11.0014L28.0723 13.6851L26.458 16.3689Z" fill="#134A9C"/>
<path d="M29.198 13.4396L27.5021 10.6201L27.4295 7.40344C27.4255 7.22865 27.3238 7.06798 27.1601 6.9776L24.1452 5.3143L22.3244 2.56025C22.2254 2.41064 22.0495 2.31776 21.8582 2.31415L18.3369 2.24773L15.2504 0.698609C15.0831 0.614705 14.8804 0.614705 14.713 0.698609L11.6264 2.24783L8.10516 2.3142C7.91387 2.31782 7.73793 2.41074 7.63899 2.5603L5.81817 5.31435L2.80331 6.97765C2.63953 7.06798 2.53786 7.2287 2.5339 7.40349L2.46119 10.6202L0.765367 13.4396C0.673405 13.5925 0.673405 13.7777 0.765367 13.9306L2.46124 16.7501L2.5339 19.9668C2.53786 20.1416 2.63953 20.3022 2.80331 20.3926L5.81817 22.0559L6.72858 23.4329L7.63899 24.81C7.73793 24.9596 7.91387 25.0525 8.10516 25.0561L9.86582 25.0893L11.6265 25.1225L13.1697 25.8971L14.713 26.6717C14.7967 26.7137 14.8892 26.7347 14.9817 26.7347C15.0742 26.7347 15.1667 26.7137 15.2504 26.6717L16.7937 25.8971L18.3369 25.1225L19.6729 25.0973L21.8582 25.0561C22.0495 25.0525 22.2254 24.9596 22.3244 24.81L22.6087 24.3799L24.1452 22.056L27.1601 20.3927C27.3238 20.3023 27.4255 20.1416 27.4295 19.9668L27.5022 16.7501L29.1981 13.9306C29.29 13.7777 29.29 13.5925 29.198 13.4396ZM26.458 16.3689C26.4147 16.441 26.3911 16.5216 26.3892 16.6038L26.32 19.6651L23.4502 21.2483C23.3728 21.291 23.3078 21.3504 23.2611 21.4211L21.5279 24.0427L18.1768 24.1058C18.0868 24.1074 17.9986 24.1291 17.9197 24.1686L14.9817 25.6433L12.0438 24.1687C11.9649 24.1291 11.8766 24.1074 11.7866 24.1058L8.43545 24.0426L6.7023 21.4211C6.65554 21.3503 6.59058 21.291 6.51313 21.2483L3.64341 19.665L3.57427 16.6038C3.57237 16.5216 3.54877 16.441 3.50541 16.3689L1.89111 13.6851L3.50535 11.0014C3.54871 10.9293 3.57231 10.8487 3.57421 10.7664L3.64341 7.70521L6.51313 6.12194C6.59058 6.07923 6.65554 6.01989 6.7023 5.94914L8.43545 3.32762L11.7865 3.26451C11.8766 3.26283 11.9648 3.24122 12.0437 3.20166L14.9817 1.72702L17.9196 3.20161C17.9985 3.24122 18.0868 3.26283 18.1768 3.26451L21.5279 3.32767L23.2611 5.94919C23.3078 6.01994 23.3728 6.07928 23.4502 6.12199L26.32 7.70526L26.3891 10.7664C26.391 10.8487 26.4146 10.9293 26.458 11.0014L28.0723 13.6851L26.458 16.3689Z" stroke="#134A9C"/>
<path d="M21.445 11.9995L17.2128 11.4716L15.3208 8.17964C15.2692 8.0895 15.1842 8.01654 15.0791 7.97219C14.8158 7.8606 14.4957 7.95359 14.364 8.17964L12.4721 11.4716L8.23983 11.9995C8.12315 12.0138 8.01647 12.061 7.93479 12.1326C7.83605 12.2197 7.78163 12.3369 7.78351 12.4584C7.78538 12.5799 7.84339 12.6958 7.94479 12.7807L11.0069 15.343L10.2835 18.9612C10.2665 19.0453 10.2773 19.1319 10.3148 19.211C10.3522 19.2902 10.4147 19.3587 10.4953 19.4089C10.5758 19.4591 10.6711 19.489 10.7704 19.495C10.8696 19.5011 10.9689 19.4832 11.0569 19.4433L14.8424 17.7351L18.628 19.4433C18.7313 19.4905 18.8513 19.5063 18.9664 19.4891C19.2564 19.4462 19.4514 19.2101 19.4014 18.9612L18.678 15.343L21.7401 12.7807C21.8234 12.7106 21.8784 12.619 21.8951 12.5189C21.9401 12.2685 21.7368 12.0367 21.445 11.9995ZM17.3895 14.9825L17.9912 17.9912L14.8424 16.572L11.6937 17.9926L12.2954 14.9839L9.74838 12.8522L13.2689 12.413L14.8424 9.67612L16.416 12.413L19.9365 12.8522L17.3895 14.9825Z" fill="#134A9C"/>
</svg>
