<svg width="38" height="37" viewBox="0 0 38 37" fill="none" xmlns="http://www.w3.org/2000/svg">
<path d="M33.9362 8.95455V2C33.9362 1.44772 34.3839 1 34.9362 1H36C36.5523 1 37 1.44772 37 2V35C37 35.5523 36.5523 36 36 36H34.9362C34.3839 36 33.9362 35.5523 33.9362 35V32.8182M33.9362 8.95455V20.8864M33.9362 8.95455H31.6383M4.06383 8.95455V2C4.06383 1.44772 3.61611 1 3.06383 1H2C1.44772 1 1 1.44772 1 2V35C1 35.5523 1.44772 36 2 36H3.06383C3.61611 36 4.06383 35.5523 4.06383 35V32.8182M4.06383 8.95455V20.8864M4.06383 8.95455H6.3617M4.06383 20.8864V32.8182M4.06383 20.8864H6.3617M33.9362 20.8864V32.8182M33.9362 20.8864H31.6383M33.9362 32.8182H31.6383M4.06383 32.8182H6.3617M15.5532 8.95455H17.0851H20.9149H22.4468M15.5532 8.95455V3.59091C15.5532 3.03862 16.0009 2.59091 16.5532 2.59091H21.4468C21.9991 2.59091 22.4468 3.03862 22.4468 3.59091V8.95455M15.5532 8.95455H24.7447M15.5532 8.95455H13.2553M22.4468 8.95455H24.7447M24.7447 8.95455H26.2766H28.1915H30.1064H31.6383M24.7447 8.95455V3.59091C24.7447 3.03862 25.1924 2.59091 25.7447 2.59091H30.6383C31.1906 2.59091 31.6383 3.03862 31.6383 3.59091V8.95455M6.3617 8.95455H7.89362H11.7234H13.2553M6.3617 8.95455V3.59091C6.3617 3.03862 6.80942 2.59091 7.3617 2.59091H12.2553C12.8076 2.59091 13.2553 3.03862 13.2553 3.59091V8.95455M15.5532 20.8864H17.0851H20.9149H22.4468M15.5532 20.8864V15.5227C15.5532 14.9704 16.0009 14.5227 16.5532 14.5227H21.4468C21.9991 14.5227 22.4468 14.9704 22.4468 15.5227V20.8864M15.5532 20.8864H13.2553M22.4468 20.8864H24.7447M31.6383 20.8864H30.1064H26.2766H24.7447M31.6383 20.8864V15.5227C31.6383 14.9704 31.1906 14.5227 30.6383 14.5227H25.7447C25.1924 14.5227 24.7447 14.9704 24.7447 15.5227V20.8864M6.3617 20.8864V15.5227C6.3617 14.9704 6.80942 14.5227 7.3617 14.5227H12.2553C12.8076 14.5227 13.2553 14.9704 13.2553 15.5227V20.8864M6.3617 20.8864H7.89362H11.7234H13.2553M6.3617 32.8182V27.4545C6.3617 26.9023 6.80942 26.4545 7.3617 26.4545H12.2553C12.8076 26.4545 13.2553 26.9023 13.2553 27.4545V32.8182M6.3617 32.8182H7.89362H11.7234H13.2553M13.2553 32.8182H15.5532M15.5532 32.8182V27.4545C15.5532 26.9023 16.0009 26.4545 16.5532 26.4545H21.4468C21.9991 26.4545 22.4468 26.9023 22.4468 27.4545V32.8182M15.5532 32.8182H17.0851H20.9149H22.4468M22.4468 32.8182H24.7447M24.7447 32.8182V27.4545C24.7447 26.9023 25.1924 26.4545 25.7447 26.4545H30.6383C31.1906 26.4545 31.6383 26.9023 31.6383 27.4545V32.8182M24.7447 32.8182H26.2766H30.1064H31.6383" stroke="#134A9C"/>
</svg>
