<svg width="171" height="70" viewBox="0 0 171 70" fill="none" xmlns="http://www.w3.org/2000/svg">
<g clip-path="url(#clip0)">
<path d="M170.4 0.608704H0.600098V69.3913H170.4V0.608704Z" fill="#FF1420" stroke="white" stroke-width="2"/>
<path d="M87.4993 11.4581V32.2609H88.0753V22.7652H95.9377C99.6529 22.7652 102.072 20.5447 102.072 17.097C102.072 13.1235 99.3937 11.4581 96.1393 11.4581H87.4993ZM88.0753 12.0132H95.7361C99.0481 12.0132 101.467 13.3864 101.467 17.1263C101.467 20.6324 98.8753 22.2101 95.7937 22.2101H88.0753V12.0132ZM109.403 11.4581H108.856L100.417 32.2609H101.08L103.844 25.3948H114.27L116.977 32.2609H117.64L109.403 11.4581ZM114.068 24.8397H104.046L109.115 12.1009L114.068 24.8397ZM136.451 24.08H135.904C135.415 28.6087 132.362 32.1732 127.552 32.1732C121.706 32.1732 118.797 27.2647 118.797 21.8887C118.797 15.7238 122.368 11.5165 127.61 11.5165C131.44 11.5165 134.752 13.8247 135.501 17.7106H136.048C135.559 13.8539 131.959 10.9614 127.696 10.9614C122.051 10.9614 118.221 15.4024 118.221 21.8887C118.221 27.6153 121.389 32.7284 127.552 32.7284C132.362 32.7284 136.077 29.1346 136.451 24.08ZM154.237 11.4581H153.402L139.175 24.1384V11.4581H138.599V32.2609H139.175V24.8397L143.869 20.6324L154.151 32.2609H154.9L144.301 20.2233L154.237 11.4581Z" fill="white"/>
<path d="M28.9777 11.4581H15.3553V32.2609H29.1217V31.7057H15.9313V21.6842H28.2289V21.129H15.9313V12.0132H28.9777V11.4581ZM45.3105 17.3016C45.1665 12.8605 41.9697 11.0198 37.7649 11.0198C33.5601 11.0198 30.9969 13.0358 30.9969 16.3082C30.9969 20.6031 35.3169 21.1875 38.5137 21.9471C41.3937 22.6483 45.1377 22.9989 45.1377 26.9141C45.1377 30.2156 42.5745 32.1732 38.2257 32.1732C33.5889 32.1732 30.9969 29.7774 30.9969 25.4532V25.3656H30.4209V25.7454C30.4209 30.5663 33.8769 32.6699 38.2545 32.6699C42.9201 32.6699 45.7137 30.5078 45.7137 26.9141C45.7137 22.6776 42.0849 22.1809 38.8881 21.4504C35.9793 20.7784 31.6017 20.3694 31.6017 16.3666C31.6017 13.3572 33.9057 11.6042 37.7937 11.6042C41.7393 11.6042 44.5617 13.1527 44.7057 17.3016H45.3105ZM62.9167 17.3016C62.7727 12.8605 59.5759 11.0198 55.3711 11.0198C51.1663 11.0198 48.6031 13.0358 48.6031 16.3082C48.6031 20.6031 52.9231 21.1875 56.1199 21.9471C58.9999 22.6483 62.7439 22.9989 62.7439 26.9141C62.7439 30.2156 60.1807 32.1732 55.8319 32.1732C51.1951 32.1732 48.6031 29.7774 48.6031 25.4532V25.3656H48.0271V25.7454C48.0271 30.5663 51.4831 32.6699 55.8607 32.6699C60.5263 32.6699 63.3199 30.5078 63.3199 26.9141C63.3199 22.6776 59.6911 22.1809 56.4943 21.4504C53.5855 20.7784 49.2079 20.3694 49.2079 16.3666C49.2079 13.3572 51.5119 11.6042 55.3999 11.6042C59.3455 11.6042 62.1679 13.1527 62.3119 17.3016H62.9167ZM74.7631 10.9322C69.1759 10.9322 65.2879 15.4316 65.2879 21.8595C65.2879 28.3165 69.1183 32.7576 74.7919 32.7576C80.5231 32.7576 84.4399 28.3749 84.4399 22.0348C84.4399 15.4901 80.4655 10.9322 74.7631 10.9322ZM74.8207 11.4873C80.1199 11.4873 83.8063 15.8115 83.8063 22.0056C83.8063 28.0536 80.1487 32.2024 74.7631 32.2024C69.5215 32.2024 65.9215 27.9367 65.9215 21.801C65.9215 15.753 69.6079 11.4873 74.8207 11.4873Z" fill="white"/>
<path d="M28.9777 11.4581H29.5777V10.8494H28.9777V11.4581ZM15.3552 11.4581V10.8494H14.7552V11.4581H15.3552ZM15.3552 32.2609H14.7552V32.8696H15.3552V32.2609ZM29.1217 32.2609V32.8696H29.7217V32.2609H29.1217ZM29.1217 31.7057H29.7217V31.0971H29.1217V31.7057ZM15.9312 31.7057H15.3312V32.3144H15.9312V31.7057ZM15.9312 21.6842V21.0755H15.3312V21.6842H15.9312ZM28.2289 21.6842V22.2929H28.8289V21.6842H28.2289ZM28.2289 21.1291H28.8289V20.5204H28.2289V21.1291ZM15.9312 21.1291H15.3312V21.7377H15.9312V21.1291ZM15.9312 12.0132V11.4045H15.3312V12.0132H15.9312ZM28.9777 12.0132V12.6219H29.5777V12.0132H28.9777ZM28.9777 10.8494H15.3552V12.0668H28.9777V10.8494ZM14.7552 11.4581V32.2609H15.9552V11.4581H14.7552ZM15.3552 32.8696H29.1217V31.6522H15.3552V32.8696ZM29.7217 32.2609V31.7057H28.5217V32.2609H29.7217ZM29.1217 31.0971H15.9312V32.3144H29.1217V31.0971ZM16.5312 31.7057V21.6842H15.3312V31.7057H16.5312ZM15.9312 22.2929H28.2289V21.0755H15.9312V22.2929ZM28.8289 21.6842V21.1291H27.6289V21.6842H28.8289ZM28.2289 20.5204H15.9312V21.7377H28.2289V20.5204ZM16.5312 21.1291V12.0132H15.3312V21.1291H16.5312ZM15.9312 12.6219H28.9777V11.4045H15.9312V12.6219ZM29.5777 12.0132V11.4581H28.3777V12.0132H29.5777ZM45.3104 17.3016V17.9103H45.9305L45.9101 17.2815L45.3104 17.3016ZM38.5136 21.9471L38.6536 21.3552L38.6504 21.3545L38.5136 21.9471ZM30.9968 25.3656H31.5968V24.7569H30.9968V25.3656ZM30.4208 25.3656V24.7569H29.8208V25.3656H30.4208ZM38.888 21.4504L38.7548 22.0439L38.7562 22.0443L38.888 21.4504ZM44.7056 17.3016L44.106 17.323L44.1263 17.9103H44.7056V17.3016ZM45.9101 17.2815C45.8329 14.8993 44.9257 13.1465 43.4189 12.0073C41.9361 10.886 39.9419 10.4111 37.7648 10.4111V11.6285C39.7925 11.6285 41.4991 12.074 42.7019 12.9834C43.8808 13.8747 44.644 15.2628 44.7107 17.3216L45.9101 17.2815ZM37.7648 10.4111C35.5764 10.4111 33.7406 10.9349 32.4375 11.955C31.1164 12.9891 30.3968 14.4932 30.3968 16.3082H31.5968C31.5968 14.8508 32.1589 13.7107 33.1705 12.9188C34.2002 12.1128 35.7484 11.6285 37.7648 11.6285V10.4111ZM30.3968 16.3082C30.3968 17.4921 30.6967 18.4571 31.2275 19.2395C31.754 20.0156 32.4816 20.5739 33.2803 20.9939C34.8463 21.8171 36.8345 22.1733 38.3768 22.5398L38.6504 21.3545C36.9959 20.9614 35.2258 20.6455 33.8325 19.9129C33.1516 19.555 32.5994 19.1145 32.216 18.5493C31.8369 17.9904 31.5968 17.2717 31.5968 16.3082H30.3968ZM38.3736 22.539C39.8884 22.9078 41.422 23.1465 42.6349 23.7686C43.2206 24.0691 43.6875 24.441 44.0105 24.9258C44.3302 25.4057 44.5376 26.0389 44.5376 26.9141H45.7376C45.7376 25.8317 45.477 24.9529 45.0047 24.2441C44.5357 23.5401 43.8866 23.0464 43.1763 22.6822C41.7973 21.9749 40.0189 21.6877 38.6536 21.3552L38.3736 22.539ZM44.5376 26.9141C44.5376 28.386 43.976 29.5152 42.9522 30.295C41.9065 31.0915 40.3216 31.5645 38.2256 31.5645V32.7819C40.4784 32.7819 42.3496 32.2762 43.6726 31.2685C45.0176 30.2441 45.7376 28.7438 45.7376 26.9141H44.5376ZM38.2256 31.5645C36.0025 31.5645 34.3598 30.9904 33.2774 29.9857C32.2033 28.9887 31.5968 27.4893 31.5968 25.4532H30.3968C30.3968 27.7413 31.0863 29.602 32.4674 30.8839C33.8402 32.1581 35.812 32.7819 38.2256 32.7819V31.5645ZM31.5968 25.4532V25.3656H30.3968V25.4532H31.5968ZM30.9968 24.7569H30.4208V25.9743H30.9968V24.7569ZM29.8208 25.3656V25.7454H31.0208V25.3656H29.8208ZM29.8208 25.7454C29.8208 28.3194 30.7522 30.2361 32.3246 31.4935C33.8754 32.7337 35.9813 33.2786 38.2544 33.2786V32.0612C36.1499 32.0612 34.339 31.5543 33.0674 30.5375C31.8174 29.5378 31.0208 27.9923 31.0208 25.7454H29.8208ZM38.2544 33.2786C40.6691 33.2786 42.6775 32.7203 44.0971 31.624C45.5367 30.5122 46.3136 28.8893 46.3136 26.9141H45.1136C45.1136 28.5327 44.4937 29.7876 43.3702 30.6553C42.2266 31.5385 40.5053 32.0612 38.2544 32.0612V33.2786ZM46.3136 26.9141C46.3136 25.764 46.0663 24.8253 45.6099 24.0606C45.1542 23.297 44.5146 22.7479 43.7936 22.3368C42.3889 21.536 40.564 21.2095 39.0199 20.8566L38.7562 22.0443C40.4089 22.4219 41.9968 22.7089 43.2056 23.3981C43.7914 23.7321 44.2588 24.1472 44.5834 24.6911C44.9073 25.2339 45.1136 25.9459 45.1136 26.9141H46.3136ZM39.0212 20.857C37.495 20.5043 35.7881 20.256 34.4066 19.6055C33.7333 19.2884 33.1874 18.895 32.8097 18.3881C32.4389 17.8904 32.2016 17.2458 32.2016 16.3666H31.0016C31.0016 17.4889 31.3115 18.3964 31.8524 19.1222C32.3864 19.8388 33.1168 20.3402 33.9014 20.7097C35.4359 21.4324 37.3722 21.7245 38.7548 22.0439L39.0212 20.857ZM32.2016 16.3666C32.2016 15.038 32.7007 14.0332 33.6014 13.3424C34.5242 12.6348 35.9281 12.2129 37.7936 12.2129V10.9955C35.7712 10.9955 34.079 11.4501 32.8778 12.3713C31.6546 13.3094 31.0016 14.6859 31.0016 16.3666H32.2016ZM37.7936 12.2129C39.7036 12.2129 41.2486 12.5901 42.3203 13.3878C43.3635 14.1644 44.0392 15.4001 44.106 17.323L45.3052 17.2801C45.228 15.0541 44.4205 13.4412 43.0301 12.4063C41.6682 11.3925 39.8292 10.9955 37.7936 10.9955V12.2129ZM44.7056 17.9103H45.3104V16.6929H44.7056V17.9103ZM62.9167 17.3016V17.9103H63.5365L63.5161 17.2815L62.9167 17.3016ZM56.1199 21.9471L56.2599 21.3552L56.2567 21.3545L56.1199 21.9471ZM48.6031 25.3656H49.2031V24.7569H48.6031V25.3656ZM48.0271 25.3656V24.7569H47.4271V25.3656H48.0271ZM56.4943 21.4504L56.3611 22.0439L56.3624 22.0443L56.4943 21.4504ZM62.3119 17.3016L61.7125 17.323L61.7329 17.9103H62.3119V17.3016ZM63.5161 17.2815C63.4393 14.8993 62.5321 13.1465 61.0255 12.0073C59.5423 10.886 57.5482 10.4111 55.3711 10.4111V11.6285C57.3987 11.6285 59.1054 12.074 60.3079 12.9834C61.4869 13.8747 62.2501 15.2628 62.3173 17.3216L63.5161 17.2815ZM55.3711 10.4111C53.1826 10.4111 51.3469 10.9349 50.0437 11.955C48.7226 12.9891 48.0031 14.4932 48.0031 16.3082H49.2031C49.2031 14.8508 49.7651 13.7107 50.7768 12.9188C51.8065 12.1128 53.3547 11.6285 55.3711 11.6285V10.4111ZM48.0031 16.3082C48.0031 17.4921 48.3029 18.4571 48.8338 19.2395C49.3603 20.0156 50.0878 20.5739 50.8866 20.9939C52.4525 21.8171 54.4407 22.1733 55.983 22.5398L56.2567 21.3545C54.6022 20.9614 52.832 20.6455 51.4387 19.9129C50.7579 19.555 50.2057 19.1145 49.8223 18.5493C49.4432 17.9904 49.2031 17.2717 49.2031 16.3082H48.0031ZM55.9798 22.539C57.4946 22.9078 59.0282 23.1465 60.2413 23.7686C60.8269 24.0691 61.2937 24.441 61.6165 24.9258C61.9363 25.4057 62.1439 26.0389 62.1439 26.9141H63.3439C63.3439 25.8317 63.0835 24.9529 62.6113 24.2441C62.1421 23.5401 61.4929 23.0464 60.7825 22.6822C59.4035 21.9749 57.6251 21.6877 56.2599 21.3552L55.9798 22.539ZM62.1439 26.9141C62.1439 28.386 61.5823 29.5152 60.5587 30.295C59.5127 31.0915 57.9278 31.5645 55.8319 31.5645V32.7819C58.0847 32.7819 59.9558 32.2762 61.2787 31.2685C62.6239 30.2441 63.3439 28.7438 63.3439 26.9141H62.1439ZM55.8319 31.5645C53.6087 31.5645 51.9661 30.9904 50.8837 29.9857C49.8095 28.9887 49.2031 27.4893 49.2031 25.4532H48.0031C48.0031 27.7413 48.6926 29.602 50.0737 30.8839C51.4465 32.1581 53.4182 32.7819 55.8319 32.7819V31.5645ZM49.2031 25.4532V25.3656H48.0031V25.4532H49.2031ZM48.6031 24.7569H48.0271V25.9743H48.6031V24.7569ZM47.4271 25.3656V25.7454H48.6271V25.3656H47.4271ZM47.4271 25.7454C47.4271 28.3194 48.3584 30.2361 49.9308 31.4935C51.4817 32.7337 53.5876 33.2786 55.8607 33.2786V32.0612C53.7561 32.0612 51.9452 31.5543 50.6737 30.5375C49.4237 29.5378 48.6271 27.9923 48.6271 25.7454H47.4271ZM55.8607 33.2786C58.2753 33.2786 60.2839 32.7203 61.7035 31.624C63.1429 30.5122 63.9199 28.8893 63.9199 26.9141H62.7199C62.7199 28.5327 62.1001 29.7876 60.9763 30.6553C59.8328 31.5385 58.1116 32.0612 55.8607 32.0612V33.2786ZM63.9199 26.9141C63.9199 25.764 63.6727 24.8253 63.2161 24.0606C62.7607 23.297 62.1211 22.7479 61.3999 22.3368C59.9951 21.536 58.1702 21.2095 56.6261 20.8566L56.3624 22.0443C58.0151 22.4219 59.603 22.7089 60.8119 23.3981C61.3975 23.7321 61.8649 24.1472 62.1895 24.6911C62.5135 25.2339 62.7199 25.9459 62.7199 26.9141H63.9199ZM56.6275 20.857C55.1012 20.5043 53.3943 20.256 52.0129 19.6055C51.3395 19.2884 50.7937 18.895 50.416 18.3881C50.0451 17.8904 49.8079 17.2458 49.8079 16.3666H48.6079C48.6079 17.4889 48.9178 18.3964 49.4587 19.1222C49.9927 19.8388 50.723 20.3402 51.5077 20.7097C53.0422 21.4324 54.9785 21.7245 56.3611 22.0439L56.6275 20.857ZM49.8079 16.3666C49.8079 15.038 50.3069 14.0332 51.2077 13.3424C52.1304 12.6348 53.5343 12.2129 55.3999 12.2129V10.9955C53.3774 10.9955 51.6853 11.4501 50.4841 12.3713C49.2608 13.3094 48.6079 14.6859 48.6079 16.3666H49.8079ZM55.3999 12.2129C57.3099 12.2129 58.8549 12.5901 59.9265 13.3878C60.9697 14.1644 61.6453 15.4001 61.7125 17.323L62.9113 17.2801C62.8345 15.0541 62.0269 13.4412 60.6367 12.4063C59.2744 11.3925 57.4354 10.9955 55.3999 10.9955V12.2129ZM62.3119 17.9103H62.9167V16.6929H62.3119V17.9103ZM74.7631 10.3235C71.8003 10.3235 69.2659 11.521 67.4797 13.5836C65.6977 15.6404 64.6879 18.5225 64.6879 21.8595H65.8879C65.8879 18.7687 66.8215 16.1871 68.3809 14.3872C69.9349 12.5931 72.1381 11.5409 74.7631 11.5409V10.3235ZM64.6879 21.8595C64.6879 25.2083 65.6821 28.0846 67.4623 30.1325C69.2479 32.1869 71.7907 33.3663 74.7919 33.3663V32.1489C72.1195 32.1489 69.9097 31.1078 68.3623 29.3273C66.8089 27.5404 65.8879 24.9677 65.8879 21.8595H64.6879ZM74.7919 33.3663C77.8165 33.3663 80.3929 32.2057 82.2085 30.1837C84.0199 28.1662 85.0399 25.3316 85.0399 22.0348H83.8399C83.8399 25.0781 82.9009 27.6049 81.3217 29.3638C79.7461 31.1182 77.4985 32.1489 74.7919 32.1489V33.3663ZM85.0399 22.0348C85.0399 18.6387 84.0079 15.7121 82.1893 13.626C80.3659 11.5344 77.7817 10.3235 74.7631 10.3235V11.5409C77.4469 11.5409 79.7005 12.609 81.2905 14.4325C82.8847 16.2615 83.8399 18.8862 83.8399 22.0348H85.0399ZM74.8207 12.096C77.2981 12.096 79.3783 13.1021 80.8471 14.8222C82.3213 16.5487 83.2063 19.0291 83.2063 22.0056H84.4063C84.4063 18.7879 83.4481 16.0092 81.7543 14.0251C80.0545 12.0347 77.6419 10.8786 74.8207 10.8786V12.096ZM83.2063 22.0056C83.2063 24.9062 82.3303 27.3022 80.8579 28.9653C79.3903 30.6229 77.2951 31.5937 74.7631 31.5937V32.8111C77.6167 32.8111 80.0431 31.7075 81.7507 29.7787C83.4535 27.8554 84.4063 25.153 84.4063 22.0056H83.2063ZM74.7631 31.5937C72.3139 31.5937 70.2709 30.6024 68.8315 28.9056C67.3861 27.2017 66.5215 24.7504 66.5215 21.8011H65.3215C65.3215 24.9873 66.2569 27.7367 67.9219 29.6997C69.5929 31.6697 71.9701 32.8111 74.7631 32.8111V31.5937ZM66.5215 21.8011C66.5215 16.0108 70.0117 12.096 74.8207 12.096V10.8786C69.2041 10.8786 65.3215 15.4953 65.3215 21.8011H66.5215Z" fill="white"/>
<path d="M16.4344 59.6522H15.5063V49.3138H16.4344V59.6522ZM15.375 46.4416C15.375 45.8329 15.5719 45.5285 15.9656 45.5285C16.1594 45.5285 16.3094 45.6078 16.4156 45.7663C16.5281 45.9248 16.5844 46.1499 16.5844 46.4416C16.5844 46.7269 16.5281 46.952 16.4156 47.1168C16.3094 47.2817 16.1594 47.3641 15.9656 47.3641C15.5719 47.3641 15.375 47.0566 15.375 46.4416ZM29.8425 59.6522V52.947C29.8425 51.9071 29.6269 51.1526 29.1956 50.6834C28.7644 50.2079 28.0956 49.9701 27.1894 49.9701C25.9706 49.9701 25.0769 50.284 24.5081 50.9117C23.9456 51.5331 23.6644 52.5444 23.6644 53.9456V59.6522H22.7363V49.3138H23.5238L23.7019 50.731H23.7581C24.4206 49.6531 25.5988 49.1141 27.2925 49.1141C29.605 49.1141 30.7613 50.3727 30.7613 52.8899V59.6522H29.8425ZM39.6319 59.0054C40.2194 59.0054 40.7319 58.9547 41.1694 58.8532V59.6141C40.7194 59.7663 40.2006 59.8424 39.6131 59.8424C38.7131 59.8424 38.0475 59.5983 37.6162 59.1101C37.1912 58.6218 36.9787 57.8546 36.9787 56.8084V50.1318H35.4694V49.5801L36.9787 49.1522L37.4475 46.8125H37.9256V49.3138H40.9162V50.1318H37.9256V56.6753C37.9256 57.4679 38.0631 58.0543 38.3381 58.4348C38.6131 58.8152 39.0444 59.0054 39.6319 59.0054ZM50.3681 59.8424C48.8869 59.8424 47.7306 59.3795 46.8994 58.4538C46.0744 57.5281 45.6619 56.2314 45.6619 54.5638C45.6619 52.9153 46.0619 51.5964 46.8619 50.6073C47.6619 49.6119 48.74 49.1141 50.0963 49.1141C51.2963 49.1141 52.2431 49.5389 52.9369 50.3885C53.6306 51.2382 53.9775 52.3922 53.9775 53.8506V54.6114H46.6369C46.6494 56.0317 46.9744 57.1159 47.6119 57.8641C48.2556 58.6123 49.1744 58.9864 50.3681 58.9864C50.9494 58.9864 51.4588 58.9452 51.8963 58.8627C52.34 58.7803 52.8994 58.6028 53.5744 58.3301V59.1861C52.9994 59.4397 52.4681 59.611 51.9806 59.6997C51.4931 59.7948 50.9556 59.8424 50.3681 59.8424ZM50.0963 49.9511C49.115 49.9511 48.3275 50.2808 47.7338 50.9402C47.14 51.5933 46.7931 52.538 46.6931 53.7745H52.9931C52.9931 52.5761 52.7369 51.6408 52.2244 50.9688C51.7119 50.2903 51.0025 49.9511 50.0963 49.9511ZM63.6822 49.1141C64.1136 49.1141 64.5762 49.1585 65.07 49.2472L64.8918 50.1508C64.467 50.043 64.026 49.9891 63.57 49.9891C62.7012 49.9891 61.989 50.3632 61.4322 51.1114C60.876 51.8596 60.5982 52.8043 60.5982 53.9456V59.6522H59.67V49.3138H60.4572L60.5514 51.178H60.6168C61.0356 50.4171 61.4826 49.8845 61.9572 49.5801C62.4324 49.2695 63.0072 49.1141 63.6822 49.1141ZM77.1372 59.6522V52.947C77.1372 51.9071 76.9218 51.1526 76.4904 50.6834C76.0596 50.2079 75.3906 49.9701 74.4846 49.9701C73.2654 49.9701 72.372 50.284 71.8032 50.9117C71.2404 51.5331 70.9596 52.5444 70.9596 53.9456V59.6522H70.0314V49.3138H70.8186L70.9968 50.731H71.0532C71.7156 49.6531 72.894 49.1141 74.5872 49.1141C76.9002 49.1141 78.0564 50.3727 78.0564 52.8899V59.6522H77.1372ZM90.4236 59.6522L90.1896 58.0163H90.1146C89.6016 58.682 89.0736 59.1544 88.53 59.4334C87.9924 59.706 87.3552 59.8424 86.6178 59.8424C85.6176 59.8424 84.8394 59.5824 84.2832 59.0625C83.727 58.5426 83.4486 57.8229 83.4486 56.9035C83.4486 55.8954 83.8614 55.1123 84.6864 54.5543C85.5174 53.9963 86.7174 53.7016 88.2864 53.6698L90.2268 53.6127V52.928C90.2268 51.9452 90.03 51.2033 89.6364 50.7025C89.2428 50.2016 88.608 49.9511 87.7332 49.9511C86.7894 49.9511 85.8114 50.2174 84.7986 50.75L84.4518 49.932C85.5708 49.3994 86.6766 49.1332 87.7704 49.1332C88.8894 49.1332 89.724 49.428 90.2736 50.0177C90.8298 50.6073 91.1082 51.5267 91.1082 52.7758V59.6522H90.4236ZM86.6736 58.9864C87.7614 58.9864 88.6176 58.6725 89.2428 58.0448C89.874 57.4108 90.1896 56.5326 90.1896 55.4103V54.3927L88.4082 54.4688C86.9766 54.5385 85.9548 54.7668 85.3428 55.1535C84.7362 55.534 84.4332 56.1299 84.4332 56.9416C84.4332 57.5883 84.627 58.0924 85.0146 58.4538C85.4082 58.8089 85.9614 58.9864 86.6736 58.9864ZM99.9882 59.0054C100.576 59.0054 101.088 58.9547 101.525 58.8532V59.6141C101.075 59.7663 100.557 59.8424 99.9696 59.8424C99.0696 59.8424 98.4036 59.5983 97.9728 59.1101C97.5474 58.6218 97.335 57.8546 97.335 56.8084V50.1318H95.8254V49.5801L97.335 49.1522L97.8036 46.8125H98.2818V49.3138H101.273V50.1318H98.2818V56.6753C98.2818 57.4679 98.4192 58.0543 98.6946 58.4348C98.9694 58.8152 99.4008 59.0054 99.9882 59.0054ZM107.537 59.6522H106.609V49.3138H107.537V59.6522ZM106.477 46.4416C106.477 45.8329 106.675 45.5285 107.068 45.5285C107.262 45.5285 107.412 45.6078 107.518 45.7663C107.63 45.9248 107.687 46.1499 107.687 46.4416C107.687 46.7269 107.63 46.952 107.518 47.1168C107.412 47.2817 107.262 47.3641 107.068 47.3641C106.675 47.3641 106.477 47.0566 106.477 46.4416ZM122.267 54.4688C122.267 56.1553 121.864 57.4742 121.057 58.4253C120.251 59.37 119.139 59.8424 117.72 59.8424C116.826 59.8424 116.039 59.6236 115.357 59.1861C114.676 58.7486 114.154 58.1209 113.792 57.303C113.429 56.4851 113.248 55.5403 113.248 54.4688C113.248 52.7821 113.651 51.4697 114.457 50.5312C115.264 49.5865 116.37 49.1141 117.776 49.1141C119.176 49.1141 120.273 49.5929 121.067 50.5503C121.867 51.5014 122.267 52.8075 122.267 54.4688ZM114.223 54.4688C114.223 55.889 114.529 56.9986 115.142 57.7975C115.76 58.5901 116.632 58.9864 117.757 58.9864C118.882 58.9864 119.751 58.5901 120.364 57.7975C120.982 56.9986 121.292 55.889 121.292 54.4688C121.292 53.0421 120.979 51.9357 120.355 51.1494C119.735 50.3632 118.864 49.9701 117.739 49.9701C116.614 49.9701 115.745 50.3632 115.132 51.1494C114.526 51.9293 114.223 53.0358 114.223 54.4688ZM135.075 59.6522V52.947C135.075 51.9071 134.86 51.1526 134.428 50.6834C133.997 50.2079 133.328 49.9701 132.422 49.9701C131.203 49.9701 130.309 50.284 129.74 50.9117C129.178 51.5331 128.897 52.5444 128.897 53.9456V59.6522H127.969V49.3138H128.756L128.935 50.731H128.99C129.653 49.6531 130.831 49.1141 132.525 49.1141C134.837 49.1141 135.994 50.3727 135.994 52.8899V59.6522H135.075ZM148.361 59.6522L148.127 58.0163H148.052C147.539 58.682 147.011 59.1544 146.468 59.4334C145.93 59.706 145.292 59.8424 144.555 59.8424C143.555 59.8424 142.777 59.5824 142.22 59.0625C141.664 58.5426 141.386 57.8229 141.386 56.9035C141.386 55.8954 141.799 55.1123 142.624 54.5543C143.455 53.9963 144.655 53.7016 146.224 53.6698L148.165 53.6127V52.928C148.165 51.9452 147.968 51.2033 147.574 50.7025C147.18 50.2016 146.546 49.9511 145.67 49.9511C144.727 49.9511 143.749 50.2174 142.736 50.75L142.39 49.932C143.508 49.3994 144.614 49.1332 145.708 49.1332C146.827 49.1332 147.661 49.428 148.211 50.0177C148.768 50.6073 149.045 51.5267 149.045 52.7758V59.6522H148.361ZM144.611 58.9864C145.699 58.9864 146.555 58.6725 147.18 58.0448C147.811 57.4108 148.127 56.5326 148.127 55.4103V54.3927L146.345 54.4688C144.914 54.5385 143.893 54.7668 143.28 55.1535C142.674 55.534 142.37 56.1299 142.37 56.9416C142.37 57.5883 142.564 58.0924 142.952 58.4538C143.345 58.8089 143.899 58.9864 144.611 58.9864ZM156.163 59.6522H155.235V44.8533H156.163V59.6522Z" fill="white"/>
</g>
<defs>
<clipPath id="clip0">
<rect width="171" height="70" fill="white"/>
</clipPath>
</defs>
</svg>
