<svg width="32" height="32" viewBox="0 0 32 32" fill="none" xmlns="http://www.w3.org/2000/svg">
<path d="M16 0C7.16354 0 0 7.16354 0 16C0 24.8365 7.16354 32 16 32C24.8365 32 32 24.8365 32 16C31.9901 7.16771 24.8323 0.00989587 16 0ZM16 30.9333C7.7526 30.9333 1.06667 24.2474 1.06667 16C1.06667 7.7526 7.7526 1.06667 16 1.06667C24.2474 1.06667 30.9333 7.7526 30.9333 16C30.924 24.2435 24.2435 30.924 16 30.9333Z" fill="white"/>
<path d="M22.9332 6.39999H9.06651C7.59437 6.40182 6.40166 7.59453 6.39984 9.06666V22.9333C6.40166 24.4055 7.59437 25.5982 9.06651 25.6H22.9332C24.4053 25.5982 25.598 24.4055 25.5998 22.9333V9.06666C25.598 7.59453 24.4053 6.40182 22.9332 6.39999ZM24.5332 22.9333C24.5332 23.8169 23.8168 24.5333 22.9332 24.5333H9.06651C8.18291 24.5333 7.46651 23.8169 7.46651 22.9333V9.06666C7.46651 8.18307 8.18291 7.46666 9.06651 7.46666H22.9332C23.8168 7.46666 24.5332 8.18307 24.5332 9.06666V22.9333Z" fill="white"/>
<path d="M16 10.6667C13.0544 10.6667 10.6667 13.0544 10.6667 16C10.6667 18.9456 13.0544 21.3333 16 21.3333C18.9456 21.3333 21.3334 18.9456 21.3334 16C21.3302 13.0557 18.9443 10.6698 16 10.6667ZM16 20.2667C13.6435 20.2667 11.7334 18.3565 11.7334 16C11.7334 13.6435 13.6435 11.7333 16 11.7333C18.3565 11.7333 20.2667 13.6435 20.2667 16C20.2641 18.3552 18.3552 20.2641 16 20.2667Z" fill="white"/>
<path d="M21.8668 8.53336C20.9832 8.53336 20.2668 9.24976 20.2668 10.1334C20.2668 11.0169 20.9832 11.7334 21.8668 11.7334C22.7504 11.7334 23.4668 11.0169 23.4668 10.1334C23.4668 9.24976 22.7504 8.53336 21.8668 8.53336ZM21.8668 10.6667C21.5723 10.6667 21.3335 10.4279 21.3335 10.1334C21.3335 9.83882 21.5723 9.60002 21.8668 9.60002C22.1613 9.60002 22.4001 9.83882 22.4001 10.1334C22.4001 10.4279 22.1613 10.6667 21.8668 10.6667Z" fill="white"/>
</svg>
