<svg width="32" height="32" viewBox="0 0 32 32" fill="none" xmlns="http://www.w3.org/2000/svg">
<path d="M19.7246 8.57493H21.8667V5.02393C21.4971 4.97554 20.2261 4.86667 18.7459 4.86667C15.6573 4.86667 13.5416 6.71568 13.5416 10.1141V13.2417H10.1334V17.2114H13.5416V27.2H17.7203V17.2124H20.9907L21.5098 13.2426H17.7193V10.5077C17.7203 9.36032 18.0449 8.57493 19.7246 8.57493Z" fill="white"/>
<path d="M16 0C7.16354 0 0 7.16354 0 16C0 24.8365 7.16354 32 16 32C24.8365 32 32 24.8365 32 16C31.9901 7.16771 24.8323 0.00989587 16 0ZM16 30.9333C7.7526 30.9333 1.06667 24.2474 1.06667 16C1.06667 7.7526 7.7526 1.06667 16 1.06667C24.2474 1.06667 30.9333 7.7526 30.9333 16C30.924 24.2435 24.2435 30.924 16 30.9333Z" fill="white"/>
</svg>
