<svg width="32" height="32" viewBox="0 0 32 32" fill="none" xmlns="http://www.w3.org/2000/svg">
<path d="M23.3026 11.5055C24.0535 10.8635 24.6852 10.0621 25.2 9.13928V9.13835C24.5129 9.50061 23.7819 9.7415 23.0186 9.85824C23.8035 9.294 24.4029 8.40735 24.6845 7.3391C23.9527 7.86442 23.1448 8.23502 22.2838 8.44255C21.589 7.55126 20.5987 7 19.5184 7C17.4225 7 15.7351 9.04848 15.7351 11.5593C15.7351 11.9206 15.7605 12.2681 15.8228 12.5988C12.6758 12.4135 9.89037 10.5976 8.01908 7.83014C7.69283 8.51297 7.50047 9.294 7.50047 10.1343C7.50047 11.7131 8.17528 13.1121 9.18248 13.9228C8.57385 13.9089 7.97753 13.6958 7.472 13.3613V13.4114C7.472 15.6266 8.78391 17.4666 10.5052 17.891C10.1966 17.9929 9.86113 18.0411 9.51257 18.0411C9.2702 18.0411 9.02551 18.0244 8.79622 17.9632C9.28635 19.768 10.679 21.0957 12.3334 21.1393C11.0453 22.352 9.40947 23.083 7.63897 23.083C7.32889 23.083 7.03111 23.0664 6.73334 23.021C8.41073 24.3227 10.3974 25.0667 12.5411 25.0667C19.2222 25.0667 23.5765 18.3551 23.3026 11.5055V11.5055Z" fill="white"/>
<path d="M16 0C7.16354 0 0 7.16354 0 16C0 24.8365 7.16354 32 16 32C24.8365 32 32 24.8365 32 16C31.9901 7.16771 24.8323 0.00989587 16 0ZM16 30.9333C7.7526 30.9333 1.06667 24.2474 1.06667 16C1.06667 7.7526 7.7526 1.06667 16 1.06667C24.2474 1.06667 30.9333 7.7526 30.9333 16C30.924 24.2435 24.2435 30.924 16 30.9333Z" fill="white"/>
</svg>
