<svg width="32" height="32" viewBox="0 0 32 32" fill="none" xmlns="http://www.w3.org/2000/svg">
<path d="M16 0C7.16354 0 0 7.16354 0 16C0 24.8365 7.16354 32 16 32C24.8365 32 32 24.8365 32 16C31.9901 7.16771 24.8323 0.00989587 16 0ZM16 30.9333C7.7526 30.9333 1.06667 24.2474 1.06667 16C1.06667 7.7526 7.7526 1.06667 16 1.06667C24.2474 1.06667 30.9333 7.7526 30.9333 16C30.924 24.2435 24.2435 30.924 16 30.9333Z" fill="white"/>
<path d="M20.9929 10H11.4061C9.52511 10 8 11.472 8 13.2864V17.9104C8 19.7264 9.52511 21.1968 11.4061 21.1968H20.9929C22.8739 21.1968 24.399 19.7248 24.399 17.9104V13.2864C24.399 11.4704 22.8739 10 20.9929 10ZM18.6905 15.824L14.2054 17.888C14.1779 17.9007 14.1477 17.9063 14.1174 17.9046C14.0871 17.9028 14.0578 17.8935 14.0321 17.8777C14.0064 17.862 13.9852 17.8401 13.9705 17.8142C13.9558 17.7883 13.948 17.7592 13.9479 17.7296V13.4736C13.9482 13.4436 13.9563 13.4142 13.9715 13.3881C13.9867 13.3621 14.0085 13.3402 14.0348 13.3247C14.0611 13.3091 14.091 13.3004 14.1217 13.2993C14.1524 13.2982 14.1829 13.3048 14.2103 13.3184L18.6938 15.5104C18.7233 15.5254 18.7479 15.5481 18.765 15.576C18.7821 15.6038 18.791 15.6357 18.7906 15.6682C18.7903 15.7006 18.7807 15.7324 18.7631 15.7599C18.7454 15.7874 18.7203 15.8096 18.6905 15.824V15.824Z" fill="white"/>
</svg>
