<svg width="32" height="32" viewBox="0 0 32 32" fill="none" xmlns="http://www.w3.org/2000/svg">
<path d="M16 0C7.16354 0 0 7.16354 0 16C0 24.8365 7.16354 32 16 32C24.8365 32 32 24.8365 32 16C31.9901 7.16771 24.8323 0.00989587 16 0ZM16 30.9333C7.7526 30.9333 1.06667 24.2474 1.06667 16C1.06667 7.7526 7.7526 1.06667 16 1.06667C24.2474 1.06667 30.9333 7.7526 30.9333 16C30.924 24.2435 24.2435 30.924 16 30.9333Z" fill="white"/>
<path d="M16.0196 7C10.688 7 8 10.6996 8 13.784C8 15.6524 8.73084 17.3133 10.2968 17.9337C10.3628 17.9595 10.4279 17.9729 10.4888 17.9729C10.6643 17.9729 10.8057 17.8655 10.8594 17.6612C10.912 17.4712 11.0338 16.9912 11.0895 16.7889C11.1639 16.5164 11.136 16.4225 10.9285 16.185C10.4764 15.6689 10.1863 15.001 10.1863 14.0565C10.1863 11.3107 12.3107 8.85497 15.713 8.85497C18.7262 8.85497 20.3819 10.6366 20.3819 13.016C20.3819 16.1468 18.9502 18.7905 16.8248 18.7905C15.649 18.7905 14.7716 17.8501 15.0534 16.6981C15.391 15.3221 16.0454 13.8377 16.0454 12.8457C16.0454 11.9559 15.551 11.2157 14.5311 11.2157C13.3295 11.2157 12.3654 12.4163 12.3654 14.0266C12.3654 15.0506 12.7236 15.7453 12.7236 15.7453C12.7236 15.7453 11.4973 20.7806 11.2815 21.6632C10.8521 23.4191 11.2165 25.5724 11.2475 25.7892C11.2578 25.8666 11.3239 25.9089 11.392 25.9089C11.4374 25.9089 11.4839 25.8903 11.5138 25.8511C11.6253 25.7128 13.0539 24.0044 13.5401 22.297C13.6795 21.8139 14.3298 19.3128 14.3298 19.3128C14.72 20.0323 15.8596 20.665 17.0725 20.665C20.6792 20.665 23.1267 17.4846 23.1267 13.2245C23.1257 10.0008 20.3066 7 16.0196 7Z" fill="white"/>
</svg>
